<?xml version="1.0" standalone="no"?>
<!DOCTYPE svg PUBLIC "-//W3C//DTD SVG 20010904//EN"
 "http://www.w3.org/TR/2001/REC-SVG-20010904/DTD/svg10.dtd">
<svg version="1.0" xmlns="http://www.w3.org/2000/svg"
 width="257.000000pt" height="236.000000pt" viewBox="0 0 257.000000 236.000000"
 preserveAspectRatio="xMidYMid meet">

<g transform="translate(0.000000,236.000000) scale(0.100000,-0.100000)"
fill="#000000" stroke="none">
<path d="M1087 2225 c-20 -14 -37 -31 -37 -37 0 -6 7 -5 17 3 9 8 4 -3 -12
-23 -34 -43 -41 -46 -49 -20 -2 9 -2 1 1 -19 7 -49 -16 -162 -28 -134 -5 15
-8 8 -8 -25 -1 -31 2 -40 8 -31 8 12 11 9 16 -11 18 -72 87 -74 161 -6 57 52
87 131 81 208 -7 85 -10 91 -53 106 -52 18 -54 18 -97 -11z m89 -1 c18 -14 18
-15 -5 -4 -12 7 -32 10 -42 7 -10 -3 -17 -1 -13 4 8 14 38 11 60 -7z m11 -126
c1 -40 0 -41 -6 -9 -6 32 -7 33 -23 15 -20 -22 -38 -68 -37 -92 0 -9 7 4 15
30 8 26 19 50 24 53 17 10 11 -38 -11 -85 -16 -36 -22 -42 -30 -30 -8 12 -10
10 -6 -8 4 -15 1 -22 -6 -19 -14 4 -21 62 -11 85 4 10 6 23 5 30 -1 7 7 28 19
47 37 59 65 52 67 -17z"/>
<path d="M1143 2128 c-6 -7 -16 -24 -22 -38 -11 -24 -11 -24 3 -6 9 11 16 24
16 28 0 5 10 13 23 18 15 6 17 9 6 9 -9 1 -21 -5 -26 -11z"/>
<path d="M1375 2240 c3 -5 0 -7 -8 -4 -16 6 -87 -51 -87 -69 0 -6 12 0 27 14
l26 24 -23 -33 -24 -32 -20 35 c-11 19 -24 35 -28 35 -5 0 -2 -10 7 -23 8 -13
12 -27 8 -32 -5 -4 -2 -5 5 -1 8 5 12 -1 12 -19 0 -14 -4 -24 -8 -21 -4 2 -9
-37 -10 -88 -2 -81 0 -96 18 -119 36 -45 103 -33 162 30 33 34 53 81 63 148 8
47 9 48 16 20 l7 -30 1 33 c0 17 -3 32 -9 32 -5 0 -10 5 -10 12 0 6 -8 21 -17
32 -18 21 -18 21 3 4 11 -10 24 -18 29 -18 5 0 18 8 29 18 21 17 21 17 4 -4
-10 -11 -18 -36 -18 -55 0 -19 -9 -80 -20 -137 -24 -125 -24 -122 -1 -122 25
0 39 18 50 66 5 21 9 31 10 22 1 -10 6 -18 12 -18 6 0 8 7 5 15 -17 42 -19 50
-9 40 5 -5 20 -38 33 -73 12 -34 26 -64 30 -67 3 -2 19 2 33 10 15 8 31 14 34
14 4 0 9 5 11 13 2 9 0 8 -8 -2 -10 -12 -11 -10 -7 10 3 14 15 78 28 142 21
113 23 117 43 105 12 -6 28 -10 36 -9 9 2 7 -2 -5 -10 -11 -7 -24 -13 -29 -13
-11 0 -16 -64 -6 -70 5 -3 4 -20 -1 -38 -13 -40 -12 -143 1 -168 12 -21 26
-26 100 -33 33 -4 47 -3 35 2 -17 8 -17 9 9 16 23 6 27 11 23 32 -4 23 -3 24
14 8 10 -9 25 -14 34 -10 13 4 14 -1 9 -37 -8 -51 -14 -60 -14 -21 0 16 -4 24
-8 17 -4 -6 -34 -16 -66 -22 -69 -13 -102 -13 -66 0 22 8 21 8 -7 4 -27 -4
-37 1 -65 34 l-33 39 -24 -19 c-13 -10 -30 -19 -39 -19 -13 0 -12 3 4 16 17
15 17 15 -8 0 -30 -17 -36 -13 -58 43 l-13 33 -18 -33 c-9 -19 -30 -39 -45
-46 -16 -7 -22 -12 -13 -13 23 0 69 38 69 58 1 10 7 4 14 -13 7 -16 23 -38 34
-49 21 -18 22 -18 58 3 36 22 37 22 50 2 8 -11 30 -29 49 -41 33 -20 41 -21
99 -11 34 6 65 11 68 11 3 0 9 -11 12 -25 9 -35 49 -59 90 -52 28 4 37 1 53
-21 11 -15 32 -33 46 -41 23 -12 29 -12 51 3 14 9 33 30 42 47 15 30 15 32 -7
55 -27 29 -50 33 -24 4 18 -20 18 -21 -1 -47 -11 -15 -27 -29 -35 -31 -8 -3
-2 9 14 25 15 16 27 32 27 35 0 3 -19 18 -42 33 l-42 28 24 16 c68 44 88 96
59 154 -9 20 -9 20 11 -2 13 -15 18 -31 15 -45 -5 -17 -4 -18 4 -6 8 12 11 6
11 -24 0 -32 -7 -45 -36 -72 -20 -19 -40 -32 -44 -29 -5 3 9 22 30 42 22 19
40 39 40 42 0 4 -20 -11 -44 -33 -38 -36 -41 -43 -29 -56 12 -13 19 -10 54 27
49 53 54 104 13 152 -37 44 -164 105 -206 99 -25 -4 -36 0 -50 18 -10 12 -33
26 -51 30 -17 3 -41 13 -52 20 -11 8 -40 14 -65 14 -25 0 -54 7 -64 15 -32 24
-64 18 -84 -15 l-18 -29 -13 35 c-13 37 -47 74 -67 74 -7 0 -26 -11 -42 -25
-17 -14 -33 -21 -36 -16 -4 5 -27 21 -52 35 -46 26 -91 35 -79 16z m238 -38
c9 -9 25 -37 35 -62 l20 -45 10 27 c6 14 17 30 24 34 10 6 11 5 1 -7 -7 -8
-15 -35 -19 -59 -7 -40 -9 -42 -15 -20 -6 21 -7 22 -9 5 -1 -13 -5 -8 -11 15
-5 19 -11 42 -13 50 -3 8 -5 18 -5 21 -1 4 -13 18 -27 33 -15 14 -22 26 -17
26 5 0 17 -8 26 -18z m-178 -117 c1 -33 -1 -52 -3 -41 -3 14 -9 8 -25 -25 -14
-31 -21 -39 -24 -26 -6 22 14 83 34 102 8 8 10 15 4 15 -15 0 -40 -53 -50
-105 -9 -47 1 -58 29 -32 12 10 12 9 1 -5 -16 -21 -34 -23 -50 -5 -8 10 -7 29
1 70 7 31 14 55 17 53 3 -1 18 11 33 26 15 15 23 28 19 28 -4 0 -16 -9 -26
-20 -10 -11 -20 -18 -23 -15 -9 9 31 46 47 43 11 -2 15 -18 16 -63z m460 35
c3 -5 1 -10 -4 -10 -6 0 -11 5 -11 10 0 6 2 10 4 10 3 0 8 -4 11 -10z m68 -22
c12 -6 30 -22 40 -35 10 -13 24 -21 30 -17 7 3 3 -1 -7 -10 -10 -8 -23 -13
-29 -9 -5 3 -7 -3 -4 -13 14 -49 18 -89 8 -74 -6 8 -11 28 -11 44 0 25 -3 27
-22 21 -39 -12 -118 -18 -118 -9 1 22 19 32 69 36 79 8 90 46 17 67 -17 5 -23
10 -13 10 10 1 28 -4 40 -11z m167 -63 c7 -8 20 -15 29 -15 10 0 26 -7 37 -15
16 -12 12 -12 -28 1 -43 14 -84 44 -60 44 5 0 15 -7 22 -15z m-463 -17 c-3 -8
-6 -5 -6 6 -1 11 2 17 5 13 3 -3 4 -12 1 -19z m313 -28 c0 -5 -4 -10 -9 -10
-5 0 -7 -9 -4 -20 3 -11 8 -20 12 -20 4 0 5 -18 3 -40 -2 -22 -6 -40 -8 -40
-2 0 -13 9 -24 20 -19 19 -19 20 0 30 11 6 20 15 20 21 0 6 -7 3 -16 -5 -8 -9
-24 -16 -35 -16 -21 0 -26 -16 -6 -23 6 -3 -7 -6 -31 -6 -39 -1 -43 1 -40 21
2 17 13 25 47 33 25 6 47 17 49 25 10 30 42 53 42 30z m217 -67 c9 -25 -88
-83 -109 -64 -4 3 -3 22 2 41 4 19 8 26 9 15 1 -16 3 -17 10 -5 6 8 7 18 4 23
-3 4 14 7 38 5 23 -2 44 -8 46 -15z m-200 -40 c-3 -10 -5 -4 -5 12 0 17 2 24
5 18 2 -7 2 -21 0 -30z m116 -152 c20 -22 46 -45 58 -52 21 -11 26 -8 56 26
18 21 33 33 33 26 0 -15 -63 -81 -78 -81 -5 0 -28 20 -50 44 -23 25 -44 41
-47 35 -10 -16 -61 -10 -78 9 -16 17 -15 18 18 14 21 -3 35 0 35 7 0 20 17 11
53 -28z"/>
<path d="M1979 2033 c-12 -16 -12 -17 2 -6 9 7 20 9 24 5 5 -4 5 -1 1 6 -9 16
-11 15 -27 -5z"/>
<path d="M1946 1955 c-3 -9 -16 -20 -28 -25 -16 -6 -18 -9 -6 -9 18 -1 48 24
48 40 0 14 -7 11 -14 -6z"/>
<path d="M1858 1893 c6 -2 18 -2 25 0 6 3 1 5 -13 5 -14 0 -19 -2 -12 -5z"/>
<path d="M2155 1920 l30 -8 -32 -1 c-26 -1 -33 -5 -33 -21 0 -25 11 -25 44 1
35 27 33 39 -6 38 l-33 -1 30 -8z m-5 -24 c0 -3 -4 -8 -10 -11 -5 -3 -10 -1
-10 4 0 6 5 11 10 11 6 0 10 -2 10 -4z"/>
<path d="M2056 1745 c-11 -8 -15 -15 -9 -15 7 0 15 5 18 10 4 6 11 7 17 4 7
-4 8 -2 4 4 -9 14 -7 15 -30 -3z"/>
<path d="M942 2200 c-27 -17 -37 -18 -48 -9 -22 18 -90 -5 -111 -39 -9 -15
-18 -29 -19 -31 -2 -1 -13 6 -25 18 -13 12 -30 21 -40 21 -20 0 -114 -73 -123
-96 -3 -8 -10 -12 -16 -9 -5 3 -10 2 -10 -3 0 -24 16 -15 71 40 33 33 63 57
67 53 4 -4 0 -10 -8 -13 -8 -3 -44 -34 -79 -70 -35 -36 -58 -61 -51 -57 9 5
11 4 6 -3 -4 -7 -13 -12 -19 -12 -15 0 -20 37 -6 45 5 4 9 12 9 18 0 7 -4 6
-10 -3 -8 -13 -10 -12 -10 3 0 26 -25 31 -61 13 -24 -12 -29 -12 -19 -1 17 20
68 29 86 14 8 -6 17 -9 20 -6 11 11 -39 29 -64 22 -36 -9 -74 -34 -67 -45 3
-5 0 -12 -6 -16 -8 -4 -9 -3 -5 4 11 19 -9 14 -27 -6 -10 -10 -14 -22 -10 -27
5 -4 3 -5 -3 -2 -15 9 -71 -77 -86 -129 -6 -25 -7 -44 0 -59 6 -13 7 -26 2
-31 -4 -5 -13 -33 -19 -63 -10 -46 -9 -58 5 -79 14 -21 22 -24 54 -19 51 7
122 57 161 113 l31 46 22 -21 c16 -15 25 -17 36 -10 13 9 13 10 0 6 -8 -2 -25
4 -36 15 -21 19 -22 19 -55 -24 -43 -54 -64 -73 -111 -98 -47 -25 -70 -25 -92
-1 -17 19 -17 19 3 14 35 -9 70 6 117 49 47 44 84 103 84 136 0 22 27 49 37
38 4 -4 3 -10 -3 -14 -6 -4 -15 -18 -19 -31 -5 -18 -4 -22 6 -16 9 6 10 3 5
-11 -4 -10 -4 -15 0 -11 4 4 17 -2 29 -13 33 -31 67 -17 127 49 53 59 56 53 4
-12 -17 -22 -42 -45 -56 -53 -14 -7 -19 -13 -11 -14 17 0 108 95 117 122 3 11
0 26 -7 34 -11 13 -16 11 -44 -16 -17 -17 -35 -27 -39 -23 -4 4 -9 -3 -13 -15
-7 -29 -33 -28 -33 1 0 66 90 177 144 177 16 0 18 5 13 33 -3 17 -9 41 -13 52
-6 18 -5 18 15 -3 15 -15 20 -29 16 -42 -4 -11 -4 -20 -1 -20 3 0 10 18 16 39
10 38 50 81 74 81 6 0 -3 -9 -21 -19 -25 -16 -34 -30 -44 -76 -8 -36 -15 -51
-21 -43 -6 10 -8 10 -8 1 0 -7 -11 -13 -25 -13 -23 0 -105 -62 -105 -80 0 -4
17 10 39 31 37 38 82 52 95 30 4 -5 -3 -7 -13 -4 -22 6 -85 -38 -96 -65 -3 -9
11 0 32 21 22 20 44 37 51 37 15 0 16 -76 2 -83 -6 -3 -5 -4 2 -3 7 1 16 20
20 42 4 26 5 18 3 -26 -2 -36 -4 -66 -5 -67 0 -2 -6 -3 -13 -3 -7 0 -30 -20
-50 -45 -21 -25 -55 -54 -75 -65 -26 -15 -30 -19 -12 -15 14 4 47 29 73 56 27
27 50 49 52 49 1 0 5 -9 8 -20 10 -39 69 -38 108 1 15 15 24 18 32 10 27 -27
81 -8 106 37 9 15 12 15 34 -6 19 -18 27 -21 33 -10 4 7 4 10 -1 6 -4 -4 -18
3 -31 17 l-22 24 -27 -34 c-30 -40 -79 -49 -90 -16 -5 16 -9 15 -39 -15 -35
-35 -80 -45 -89 -20 -4 9 4 16 24 20 34 6 69 57 69 98 0 26 22 58 41 58 5 0 9
-5 9 -11 0 -5 -4 -8 -9 -5 -14 9 -33 -21 -28 -46 4 -20 4 -20 6 5 1 18 7 27
17 27 13 0 14 -3 5 -14 -19 -22 -4 -86 20 -86 31 0 49 43 64 147 8 54 18 118
24 143 5 24 7 48 4 53 -3 5 4 3 16 -5 12 -7 21 -19 21 -26 0 -7 5 -10 11 -7
14 9 -29 55 -50 55 -9 0 -31 -9 -49 -20z m-10 -22 c-7 -7 -12 -20 -12 -30 0
-10 -4 -18 -10 -18 -5 0 -10 -9 -10 -21 0 -20 -27 -56 -35 -47 -3 3 0 30 6 60
9 46 14 55 29 51 10 -3 21 0 24 6 4 6 10 11 14 11 3 0 1 -5 -6 -12z m-581
-205 c-5 -10 -17 -27 -26 -38 -16 -19 -16 -19 -4 5 13 27 29 50 36 50 2 0 -1
-8 -6 -17z m169 -18 c0 -8 -8 -15 -19 -15 -21 0 -45 -23 -34 -33 12 -12 22 -7
17 8 -4 9 0 15 10 15 20 0 21 -14 1 -30 -12 -10 -18 -10 -29 -1 -10 8 -16 9
-21 1 -3 -5 -13 -10 -21 -10 -8 0 -12 5 -9 10 4 6 12 7 18 4 7 -4 9 -3 4 1 -4
5 0 18 10 29 9 12 -1 4 -21 -17 -21 -21 -41 -36 -44 -32 -4 4 10 22 31 40 26
23 45 31 60 28 18 -4 19 -3 7 6 -12 9 -10 11 13 11 17 0 27 -5 27 -15z m-223
-97 c-3 -7 -5 -2 -5 12 0 14 2 19 5 13 2 -7 2 -19 0 -25z m133 -18 c0 -5 -7
-10 -16 -10 -8 0 -13 -4 -10 -9 7 -10 -37 -41 -56 -41 -7 1 -2 7 12 15 25 14
25 15 -10 9 l-35 -5 42 18 c23 10 45 21 49 26 11 10 24 9 24 -3z m-130 -21 c0
-6 -4 -7 -10 -4 -5 3 -10 11 -10 16 0 6 5 7 10 4 6 -3 10 -11 10 -16z m15 -39
c-12 -4 -24 -24 -31 -51 -8 -28 -12 -36 -13 -21 -2 38 28 92 47 85 13 -6 13
-7 -3 -13z"/>
<path d="M881 2114 c0 -11 3 -14 6 -6 3 7 2 16 -1 19 -3 4 -6 -2 -5 -13z"/>
<path d="M985 2065 c-3 -26 -4 -49 -2 -51 3 -3 8 16 12 41 3 26 4 49 2 51 -3
3 -8 -16 -12 -41z"/>
<path d="M1751 2084 c0 -11 3 -14 6 -6 3 7 2 16 -1 19 -3 4 -6 -2 -5 -13z"/>
<path d="M1493 2024 c-6 -25 -7 -42 -3 -37 9 9 25 83 18 83 -3 0 -9 -21 -15
-46z"/>
<path d="M1741 2044 c0 -11 3 -14 6 -6 3 7 2 16 -1 19 -3 4 -6 -2 -5 -13z"/>
<path d="M1227 2005 c-4 -8 -2 -17 3 -20 6 -4 10 3 10 14 0 25 -6 27 -13 6z"/>
<path d="M1732 2000 c0 -14 2 -19 5 -12 2 6 2 18 0 25 -3 6 -5 1 -5 -13z"/>
<path d="M1168 1919 c-26 -27 -45 -49 -43 -49 9 0 76 64 86 81 13 26 11 24
-43 -32z"/>
<path d="M1230 1962 c-1 -41 -78 -105 -146 -121 -28 -6 -32 -9 -14 -10 37 -1
102 32 132 68 29 34 38 38 38 17 0 -22 68 -76 96 -76 30 0 92 25 116 47 17 15
18 15 18 -4 0 -11 7 -26 15 -33 10 -9 15 -9 15 -1 0 6 -5 11 -11 11 -7 0 -10
12 -7 30 5 36 -2 37 -40 5 -36 -30 -74 -45 -110 -44 l-27 1 30 8 c29 8 29 8
-8 7 -44 -1 -63 15 -82 69 -8 21 -14 33 -15 26z"/>
<path d="M1460 1950 c-6 -11 -29 -34 -52 -50 -23 -17 -37 -30 -32 -30 14 0 83
59 94 81 6 10 8 19 6 19 -3 0 -10 -9 -16 -20z"/>
<path d="M666 1931 c-10 -11 -23 -18 -27 -15 -5 3 -9 -2 -9 -11 0 -14 6 -12
31 9 26 22 34 24 47 14 13 -11 14 -10 10 2 -7 23 -32 23 -52 1z"/>
<path d="M1721 1934 c0 -11 3 -14 6 -6 3 7 2 16 -1 19 -3 4 -6 -2 -5 -13z"/>
<path d="M1538 1879 c-15 -16 -23 -29 -19 -29 11 0 51 39 51 50 0 13 0 13 -32
-21z"/>
<path d="M836 1873 c-6 -14 -5 -15 5 -6 7 7 10 15 7 18 -3 3 -9 -2 -12 -12z"/>
<path d="M944 1875 c-3 -8 -15 -17 -26 -21 -11 -3 -17 -8 -15 -11 8 -8 44 15
51 32 3 8 3 15 0 15 -2 0 -7 -7 -10 -15z"/>
<path d="M790 1829 c-19 -11 -28 -19 -19 -19 9 0 27 9 40 20 29 23 25 23 -21
-1z"/>
<path d="M1417 1843 c-2 -5 -5 -44 -6 -88 -1 -55 2 -75 8 -65 8 12 10 10 8 -7
-1 -19 -5 -21 -44 -16 -28 3 -43 1 -43 -6 0 -7 25 -11 69 -11 l70 0 -11 31
c-6 16 -8 57 -6 89 4 57 3 59 -21 63 -21 4 -21 5 4 3 l30 -1 5 -90 5 -90 110
-5 c104 -4 100 -5 -74 -10 l-185 -5 -15 -45 c-9 -25 -20 -51 -25 -58 -4 -7 -6
-16 -3 -18 9 -9 118 -11 123 -2 3 4 9 6 13 3 5 -2 60 -5 122 -6 63 0 132 -4
154 -8 51 -10 60 0 60 64 0 41 3 50 19 53 13 3 16 0 11 -9 -5 -8 -4 -10 3 -5
11 7 17 -7 12 -29 -1 -5 2 -7 6 -3 7 8 31 -19 32 -35 0 -5 9 -15 19 -23 17
-14 16 -14 -4 -4 -13 6 -23 14 -23 18 0 4 -15 23 -33 43 l-32 36 3 -176 c2
-97 5 -177 7 -179 2 -3 39 14 81 37 42 23 79 40 81 37 3 -3 -27 -21 -66 -41
-40 -19 -69 -39 -67 -44 3 -4 -6 -6 -19 -3 -19 3 -27 -1 -34 -19 -14 -34 -45
-198 -39 -204 3 -3 13 34 22 82 10 49 19 95 21 103 2 8 4 18 4 21 1 3 7 6 14
6 11 0 11 -8 -1 -41 -16 -46 -41 -155 -47 -201 l-3 -30 184 0 c101 0 184 1
184 2 0 1 -4 13 -10 27 -5 14 -6 26 -1 26 5 0 11 -13 14 -29 4 -18 14 -30 28
-34 21 -6 22 -32 1 -32 -7 0 -12 -3 -12 -7 0 -5 0 -10 0 -13 0 -3 9 -1 20 5
26 14 26 49 -1 59 -18 6 -32 40 -76 187 -30 98 -60 191 -68 206 -7 15 -55 84
-105 153 -74 100 -97 125 -114 123 -18 -3 -21 -11 -24 -60 l-3 -58 -32 0 c-48
0 -56 13 -43 65 13 49 33 77 22 30 -15 -61 -15 -79 -2 -40 20 57 20 93 -1 99
-10 2 -58 4 -108 4 l-90 0 -3 78 c-2 43 -8 84 -14 91 -11 14 -54 18 -61 6z
m10 -115 c-2 -13 -4 -3 -4 22 0 25 2 35 4 23 2 -13 2 -33 0 -45z m558 -377 c0
-3 3 -10 6 -16 11 -18 41 -116 37 -120 -2 -3 -14 23 -25 58 -14 39 -26 61 -35
59 -10 -3 -10 -1 -1 9 11 11 -6 44 -52 95 -32 37 -43 53 -38 58 5 5 108 -130
108 -143z m101 -329 c-6 -5 -56 150 -55 168 0 8 14 -25 29 -75 16 -49 28 -91
26 -93z"/>
<path d="M1949 1823 c-13 -16 -12 -17 4 -4 9 7 17 15 17 17 0 8 -8 3 -21 -13z"/>
<path d="M426 1722 c-36 -42 -36 -44 -7 -17 28 25 58 66 49 65 -2 -1 -21 -22
-42 -48z"/>
<path d="M1001 1741 c-14 -25 -14 -84 -1 -76 6 3 10 24 10 46 0 37 2 39 30 39
29 0 30 -2 30 -45 0 -25 -3 -45 -8 -45 -4 0 -6 18 -4 40 4 35 2 40 -17 40 -18
0 -21 -6 -21 -39 0 -47 -10 -57 -63 -60 -20 -1 -27 -11 -42 -61 -14 -46 -15
-63 -6 -73 9 -12 7 -14 -13 -14 -18 0 -23 4 -19 16 4 13 3 13 -5 2 -5 -7 -14
-11 -20 -7 -12 7 -106 -69 -162 -130 -19 -21 -28 -33 -19 -26 9 6 19 9 22 6 7
-8 -73 -74 -88 -74 -5 1 2 12 18 25 15 13 27 27 27 30 0 4 -74 -62 -165 -145
-91 -83 -165 -154 -165 -157 0 -4 11 4 25 17 14 13 25 19 25 13 0 -7 -19 -27
-41 -47 -26 -22 -39 -41 -36 -50 3 -8 39 -24 79 -36 115 -33 118 -35 234 -145
l109 -105 657 3 658 2 32 32 c26 27 30 35 20 45 -11 11 -12 10 -6 -5 4 -12 2
-17 -7 -15 -8 2 -13 -3 -12 -9 2 -7 -3 -12 -10 -10 -6 1 -11 -4 -9 -12 2 -8
-3 -11 -13 -8 -8 4 -15 3 -15 -1 0 -4 -292 -7 -649 -7 -385 0 -647 4 -644 9 4
5 0 6 -7 1 -9 -6 -11 -4 -5 5 6 9 4 11 -5 5 -9 -6 -11 -4 -5 5 6 9 4 11 -5 5
-9 -6 -11 -4 -5 5 6 9 4 11 -5 5 -9 -6 -11 -4 -5 5 6 9 4 11 -5 5 -9 -6 -11
-4 -5 5 6 9 4 11 -5 5 -9 -6 -11 -4 -5 5 6 9 4 11 -5 5 -9 -5 -11 -4 -6 4 5 7
2 10 -6 9 -7 -2 -12 3 -10 10 1 8 -2 11 -9 6 -8 -4 -9 -3 -5 5 5 7 2 10 -6 9
-7 -2 -12 3 -10 10 1 8 -2 11 -9 6 -8 -5 -9 -3 -4 6 6 9 4 11 -5 5 -9 -5 -11
-4 -6 4 5 7 2 10 -6 9 -7 -2 -12 3 -11 9 2 7 0 12 -5 12 -4 -1 -14 -1 -22 0
-13 1 -13 2 0 12 12 8 11 9 -5 7 -12 -2 -19 2 -18 9 2 7 0 12 -5 11 -4 -1 -25
4 -47 10 -22 6 -66 18 -97 27 -32 9 -58 19 -58 24 0 10 32 11 45 1 6 -5 39
-16 75 -25 91 -23 104 -32 210 -139 l95 -96 633 0 c697 0 679 -2 701 61 6 18
11 54 11 80 0 43 3 50 29 63 16 9 31 12 35 9 3 -4 6 -1 6 5 0 9 -57 12 -211
12 l-211 0 4 -41 c4 -39 3 -41 -24 -37 -15 3 -25 2 -23 -1 2 -3 -194 -5 -435
-3 l-438 2 -94 36 c-111 43 -138 49 -262 68 -52 8 -103 19 -112 24 -16 9 -15
11 4 21 15 8 34 8 64 2 35 -8 46 -7 63 7 17 14 150 136 309 281 28 26 35 30
27 14 -6 -12 -20 -28 -31 -36 -17 -12 -62 -54 -247 -229 -34 -33 -65 -58 -68
-58 -3 1 -11 -1 -18 -4 -6 -3 4 -4 24 -1 36 5 135 -11 154 -25 11 -9 126 -6
141 3 6 3 11 27 12 54 1 26 5 60 8 75 11 55 -8 53 -64 -8 l-54 -59 54 65 c62
74 74 93 81 135 9 49 16 76 28 112 6 18 13 50 15 71 8 68 11 76 23 80 12 4 11
-53 -1 -74 -4 -5 -18 -67 -33 -138 -14 -70 -29 -134 -32 -142 -4 -12 27 -14
199 -14 149 0 208 3 217 13 11 10 13 9 8 -6 -4 -11 -3 -16 3 -12 6 3 10 17 10
31 0 13 10 68 21 122 25 110 29 132 36 185 l5 37 -175 0 c-97 0 -178 4 -181 9
-4 5 55 8 139 8 143 -2 145 -2 145 20 0 26 20 42 21 16 0 -16 1 -16 9 2 5 11
9 27 9 35 0 10 -3 8 -8 -4 -5 -13 -10 -16 -14 -9 -4 7 -3 14 3 18 5 3 10 16
11 28 0 21 1 21 9 2 8 -17 9 -15 7 10 -1 20 -8 31 -21 33 -11 3 -16 0 -12 -7
5 -8 -26 -11 -106 -10 -111 1 -118 2 -68 13 25 5 26 8 20 53 -5 45 -7 48 -37
51 -23 2 -34 -2 -42 -17z m-163 -255 c-10 -7 -15 -16 -11 -19 3 -4 -3 -10 -13
-14 -10 -3 -29 -17 -40 -29 -12 -13 -24 -20 -27 -18 -3 3 -10 -3 -16 -14 -6
-11 -18 -22 -26 -26 -9 -3 -13 -2 -10 4 10 16 145 130 153 130 4 0 -1 -7 -10
-14z m-259 -232 c-70 -77 -197 -190 -204 -183 -3 4 216 208 224 209 3 0 -6
-12 -20 -26z m59 -264 c-7 -10 -14 -17 -17 -15 -4 4 18 35 25 35 2 0 -1 -9 -8
-20z m1206 -112 c-8 -12 -74 -10 -74 2 0 6 17 10 39 8 22 -1 38 -5 35 -10z
m91 1 c-4 -6 -13 -8 -21 -5 -8 3 -14 1 -14 -4 0 -6 -4 -10 -10 -10 -5 0 -10 7
-10 15 0 10 10 15 31 15 19 0 28 -4 24 -11z m95 0 c0 -5 -4 -7 -10 -4 -5 3
-10 0 -10 -7 0 -10 -2 -10 -9 1 -7 11 -9 11 -14 0 -4 -10 -6 -9 -6 4 -1 12 7
17 24 17 14 0 25 -5 25 -11z"/>
<path d="M335 1659 c-22 -10 -34 -19 -27 -19 15 0 72 28 72 35 0 6 3 7 -45
-16z"/>
<path d="M940 1661 c-19 -5 -28 -19 -42 -65 -10 -33 -16 -61 -14 -63 3 -3 12
23 22 56 11 42 22 61 33 61 9 0 23 5 31 10 17 11 7 11 -30 1z"/>
<path d="M1112 1659 c7 -5 36 -8 63 -8 60 1 50 6 -23 12 -32 2 -48 1 -40 -4z"/>
<path d="M1317 1653 c-2 -5 -14 -38 -26 -75 -14 -41 -29 -68 -39 -71 -13 -4
-12 -5 4 -6 16 -1 24 8 33 42 7 23 21 56 31 74 11 18 15 35 10 38 -5 3 -11 2
-13 -2z"/>
<path d="M1306 1478 c-12 -42 -48 -240 -44 -244 3 -2 16 52 29 121 20 104 27
125 42 125 13 0 16 -6 12 -22 -19 -85 -24 -115 -24 -133 1 -16 37 132 39 158
0 12 -50 8 -54 -5z"/>
<path d="M1341 1328 c-18 -90 -35 -173 -38 -185 -5 -22 -4 -22 116 -20 67 1
121 -2 121 -6 0 -4 -57 -7 -126 -6 -69 0 -128 -2 -131 -5 -3 -3 -7 -23 -8 -45
-2 -22 -7 -46 -11 -53 -4 -6 -8 -21 -9 -32 -1 -12 -5 -36 -9 -53 l-8 -33 200
0 c151 0 201 -3 205 -12 2 -7 8 5 11 27 4 22 15 81 26 130 10 50 16 92 15 93
-6 6 -24 -70 -37 -150 -7 -43 -16 -78 -21 -78 -5 0 -6 12 -3 28 30 135 34 173
20 179 -22 8 -17 22 6 16 15 -4 20 0 21 13 0 11 2 26 4 34 13 49 38 189 37
208 0 12 4 22 9 22 5 0 7 11 3 25 -4 14 -2 25 4 25 6 0 9 8 8 18 -3 15 -21 17
-188 20 l-185 2 -32 -162z m259 -208 c0 -5 -7 -10 -16 -10 -8 0 -12 5 -9 10 3
6 10 10 16 10 5 0 9 -4 9 -10z"/>
<path d="M1760 1445 c0 -25 -4 -45 -10 -45 -5 0 -10 -9 -10 -21 0 -11 4 -18 8
-15 4 2 6 -24 4 -60 -3 -43 -1 -64 7 -64 7 0 11 40 11 125 0 69 -2 125 -5 125
-3 0 -5 -20 -5 -45z"/>
<path d="M1720 1280 c-7 -39 -10 -73 -8 -76 3 -2 10 28 17 67 6 40 10 74 7 76
-2 2 -9 -28 -16 -67z"/>
<path d="M1312 1280 c0 -14 2 -19 5 -12 2 6 2 18 0 25 -3 6 -5 1 -5 -13z"/>
<path d="M1296 1205 c-9 -58 -31 -99 -49 -89 -9 5 -9 4 0 -6 10 -10 15 -11 27
-1 16 13 40 113 33 134 -2 6 -7 -10 -11 -38z"/>
<path d="M1252 1200 c0 -14 2 -19 5 -12 2 6 2 18 0 25 -3 6 -5 1 -5 -13z"/>
<path d="M1702 1165 c0 -16 2 -22 5 -12 2 9 2 23 0 30 -3 6 -5 -1 -5 -18z"/>
<path d="M1241 1144 c0 -11 3 -14 6 -6 3 7 2 16 -1 19 -3 4 -6 -2 -5 -13z"/>
<path d="M796 1098 c-10 -32 -14 -101 -5 -87 5 7 9 31 9 52 0 20 5 37 10 37 6
0 10 -9 10 -19 0 -11 4 -22 8 -25 5 -3 6 8 4 25 -4 29 -29 41 -36 17z"/>
<path d="M837 1017 c-10 -51 -20 -103 -24 -115 l-5 -22 200 2 201 3 6 45 c3
25 9 59 11 75 13 75 12 90 -10 97 -12 3 -97 6 -191 7 l-170 1 -18 -93z"/>
<path d="M1262 1070 c0 -14 2 -19 5 -12 2 6 2 18 0 25 -3 6 -5 1 -5 -13z"/>
<path d="M811 1015 c1 -40 1 -40 10 -10 5 18 5 33 -1 39 -7 7 -10 -4 -9 -29z"/>
<path d="M398 993 c7 -3 16 -2 19 1 4 3 -2 6 -13 5 -11 0 -14 -3 -6 -6z"/>
<path d="M1712 975 c0 -16 2 -22 5 -12 2 9 2 23 0 30 -3 6 -5 -1 -5 -18z"/>
<path d="M771 983 c1 -5 0 -10 -1 -13 -1 -3 -3 -13 -5 -24 -3 -14 -1 -16 8 -7
14 14 20 51 7 51 -6 0 -9 -3 -9 -7z"/>
<path d="M488 973 c7 -3 16 -2 19 1 4 3 -2 6 -13 5 -11 0 -14 -3 -6 -6z"/>
<path d="M538 963 c7 -3 16 -2 19 1 4 3 -2 6 -13 5 -11 0 -14 -3 -6 -6z"/>
<path d="M795 931 c-4 -23 -9 -41 -12 -41 -16 0 -103 36 -103 42 0 5 -8 8 -17
8 -11 0 -13 -3 -7 -9 11 -11 114 -51 130 -51 11 0 29 78 20 87 -2 2 -7 -14
-11 -36z"/>
<path d="M588 953 c7 -3 16 -2 19 1 4 3 -2 6 -13 5 -11 0 -14 -3 -6 -6z"/>
<path d="M703 933 c9 -2 25 -2 35 0 9 3 1 5 -18 5 -19 0 -27 -2 -17 -5z"/>
<path d="M1703 905 c0 -22 2 -30 4 -17 2 12 2 30 0 40 -3 9 -5 -1 -4 -23z"/>
<path d="M2085 889 c-10 -15 3 -25 16 -12 7 7 7 13 1 17 -6 3 -14 1 -17 -5z"/>
<path d="M1278 873 c12 -2 30 -2 40 0 9 3 -1 5 -23 4 -22 0 -30 -2 -17 -4z"/>
<path d="M2082 820 c-1 -22 2 -40 8 -40 5 0 10 18 10 40 0 52 -14 52 -18 0z"/>
<path d="M228 704 c-14 -30 -3 -53 34 -71 l25 -13 -13 -67 c-19 -100 -18 -110
16 -128 39 -20 67 -19 74 3 3 9 10 46 16 83 13 77 24 99 41 82 8 -8 7 -31 -5
-89 -16 -74 -16 -79 2 -96 15 -15 24 -17 45 -9 15 6 27 16 27 23 0 9 -3 9 -8
2 -19 -28 -72 -22 -72 9 0 7 4 7 12 -1 21 -21 47 -14 54 16 14 63 15 64 42 57
41 -10 52 -24 52 -65 0 -29 5 -39 19 -43 11 -3 22 -2 25 1 11 10 6 88 -6 100
-9 9 -5 16 14 31 49 39 40 85 -22 110 -19 7 -21 10 -6 10 23 1 86 -61 86 -86
0 -10 -11 -35 -25 -55 -25 -37 -32 -72 -16 -82 4 -3 6 7 3 22 -5 24 -4 26 11
13 10 -7 17 -9 17 -3 0 6 -5 12 -10 14 -7 2 -2 20 12 45 22 40 22 42 6 77 -22
45 -56 62 -160 80 -45 8 -125 24 -175 35 -51 12 -95 21 -98 21 -3 0 -11 -12
-17 -26z m127 -8 c33 -8 49 -14 35 -14 -28 0 -133 25 -110 26 8 1 42 -5 75
-12z m-83 -33 c16 -3 32 -12 35 -19 2 -7 -2 -49 -11 -95 -17 -88 -15 -99 14
-99 19 0 32 43 47 148 6 43 7 44 36 38 55 -11 69 -41 47 -106 -6 -17 -7 -11
-4 22 5 41 4 47 -16 53 -12 4 -24 5 -26 2 -3 -3 -12 -42 -21 -88 -18 -94 -24
-105 -50 -94 -10 5 -21 8 -25 7 -3 -1 -11 5 -18 13 -10 11 -9 34 4 102 18 98
19 114 8 96 -13 -20 -57 8 -59 37 -1 16 0 18 3 7 3 -10 19 -20 36 -24z m172
11 c9 -3 16 -17 16 -31 0 -13 -4 -21 -10 -18 -5 3 -10 15 -10 25 0 10 -6 21
-12 23 -7 3 -10 6 -6 6 3 1 13 -2 22 -5z m69 -11 c-7 -2 -21 -2 -30 0 -10 3
-4 5 12 5 17 0 24 -2 18 -5z m44 -9 c-3 -3 -12 -4 -19 -1 -8 3 -5 6 6 6 11 1
17 -2 13 -5z m28 -60 c9 -9 14 -21 12 -27 -5 -16 -56 -17 -72 -1 -13 14 -15
14 -15 -2 0 -10 -2 -15 -5 -12 -4 3 -3 17 1 32 5 20 12 26 34 26 16 0 36 -7
45 -16z m-158 -131 c-3 -10 -5 -4 -5 12 0 17 2 24 5 18 2 -7 2 -21 0 -30z"/>
<path d="M370 619 c0 -5 5 -7 10 -4 6 3 10 8 10 11 0 2 -4 4 -10 4 -5 0 -10
-5 -10 -11z"/>
<path d="M341 464 c0 -11 3 -14 6 -6 3 7 2 16 -1 19 -3 4 -6 -2 -5 -13z"/>
<path d="M528 593 c7 -3 16 -2 19 1 4 3 -2 6 -13 5 -11 0 -14 -3 -6 -6z"/>
<path d="M576 577 c3 -10 9 -15 12 -12 3 3 0 11 -7 18 -10 9 -11 8 -5 -6z"/>
<path d="M2215 708 c-106 -21 -138 -40 -128 -78 3 -11 10 -20 15 -20 5 0 7 4
4 8 -2 4 6 9 19 10 13 1 30 3 37 4 8 2 12 -5 11 -17 -3 -47 -25 -166 -30 -162
-2 3 0 31 6 63 15 80 14 86 -11 82 -14 -2 -24 -13 -29 -31 -9 -35 -28 -59 -40
-51 -5 3 0 17 11 31 11 14 20 30 20 36 0 5 -11 -5 -24 -24 -19 -28 -21 -37
-11 -49 7 -8 15 -22 18 -30 4 -10 6 -8 4 5 -1 11 6 31 16 45 9 13 17 32 17 42
0 10 7 18 15 18 8 0 15 -1 15 -3 0 -3 -15 -86 -24 -134 -3 -12 3 -32 13 -44
14 -17 23 -20 49 -14 17 3 34 10 37 15 10 16 41 209 33 204 -4 -3 -9 -17 -9
-32 l-1 -27 -9 30 c-6 24 -7 21 -3 -15 4 -38 -9 -147 -19 -157 -2 -1 -19 -5
-38 -8 -26 -4 -29 -3 -14 4 19 9 18 10 -5 11 -21 2 -22 3 -5 7 35 9 42 22 54
101 19 121 19 120 59 129 26 6 38 15 42 32 5 21 7 22 19 8 18 -22 5 -54 -27
-66 -17 -6 -21 -10 -9 -10 22 -1 57 34 57 57 0 11 -8 26 -17 34 -16 14 -28 14
-118 -4z m72 -4 c-3 -3 -12 -4 -19 -1 -8 3 -5 6 6 6 11 1 17 -2 13 -5z m-57
-14 c-14 -4 -36 -8 -50 -8 -22 0 -22 1 5 8 17 4 39 8 50 8 16 0 15 -2 -5 -8z
m-83 -16 c-3 -3 -12 -4 -19 -1 -8 3 -5 6 6 6 11 1 17 -2 13 -5z m-40 -26 c-3
-8 -6 -5 -6 6 -1 11 2 17 5 13 3 -3 4 -12 1 -19z"/>
<path d="M1950 659 c-30 -5 -58 -13 -63 -18 -4 -4 -10 -25 -12 -47 -4 -31 -3
-34 4 -14 15 43 13 -5 -6 -102 -9 -48 -21 -88 -26 -88 -4 0 -24 -12 -43 -27
-26 -19 -51 -28 -91 -31 -40 -3 -54 -2 -49 7 4 6 1 11 -7 11 -16 0 -51 37 -61
64 -5 14 -12 17 -29 11 -12 -3 -35 -11 -52 -16 -30 -9 -30 -9 5 -5 19 3 43 7
53 11 12 5 17 2 17 -10 0 -9 16 -33 35 -52 34 -34 38 -35 89 -31 38 3 65 12
89 31 33 25 34 25 50 6 29 -33 97 -4 97 42 0 28 11 49 25 49 8 0 11 -8 8 -20
-4 -13 2 -30 16 -44 18 -19 28 -22 54 -17 30 6 32 10 33 51 l2 45 -7 -40 c-5
-36 -9 -40 -36 -41 -44 -1 -51 7 -18 21 36 15 47 52 27 90 -12 23 -10 29 12
62 15 23 22 43 18 56 -3 11 -7 27 -8 36 -3 20 -48 23 -126 10z m103 -6 c-7 -2
-21 -2 -30 0 -10 3 -4 5 12 5 17 0 24 -2 18 -5z m-150 -28 c-3 -9 -8 -14 -10
-11 -3 3 -2 9 2 15 9 16 15 13 8 -4z m121 -38 c15 -24 -10 -45 -59 -51 -22 -2
-35 -2 -28 1 7 2 9 11 7 18 -4 9 6 18 28 24 27 9 28 10 6 7 -33 -4 -38 11 -5
17 31 6 39 3 51 -16z m-16 -127 c3 -20 1 -23 -9 -12 -26 25 -48 14 -55 -27 -3
-21 -9 -43 -13 -49 -10 -17 -63 -19 -69 -3 -3 10 2 13 22 9 15 -3 28 -2 31 2
6 10 17 62 19 88 1 20 6 23 36 20 29 -2 36 -7 38 -28z"/>
<path d="M1999 563 c-13 -16 -12 -17 4 -4 16 13 21 21 13 21 -2 0 -10 -8 -17
-17z"/>
<path d="M2292 656 c-36 -21 -38 -27 -4 -15 18 6 32 15 32 20 0 5 -1 9 -2 8
-2 -1 -13 -7 -26 -13z"/>
<path d="M764 632 c-16 -10 -97 -153 -91 -159 3 -3 15 13 27 36 11 23 23 41
25 41 9 0 -35 -80 -55 -100 -11 -11 -17 -20 -13 -20 4 0 -4 -10 -16 -21 -18
-17 -20 -23 -9 -30 9 -6 4 -9 -16 -9 -34 0 -55 24 -56 65 -1 69 -41 69 -54 0
-4 -19 -14 -39 -24 -45 -15 -10 -15 -10 2 -8 13 2 23 16 30 42 15 54 36 59 36
8 0 -53 21 -69 102 -77 61 -7 68 -5 80 14 18 30 50 26 69 -8 15 -25 23 -29 85
-35 74 -8 94 3 94 49 0 12 5 26 12 33 6 6 9 15 5 18 -7 7 -22 -26 -31 -68 -6
-24 -11 -28 -39 -27 -21 1 -25 3 -12 6 25 6 45 22 45 36 0 6 -6 4 -12 -5 -16
-20 -93 -34 -103 -19 -3 6 -10 9 -15 6 -4 -3 -15 6 -24 20 -9 14 -12 25 -7 25
5 0 12 -7 15 -16 7 -19 57 -15 64 5 3 8 0 11 -5 8 -5 -3 -15 32 -22 81 -16
117 -20 130 -39 135 -15 4 -15 5 0 6 21 1 52 -43 44 -64 -3 -8 0 -15 6 -15 14
0 2 60 -15 76 -15 15 -70 25 -83 16z m-9 -42 c-9 -16 -18 -30 -21 -30 -2 0 2
14 11 30 9 17 18 30 21 30 2 0 -2 -13 -11 -30z m45 -93 c0 -27 -3 -37 -9 -28
-6 9 -11 10 -15 3 -4 -6 -13 -9 -21 -6 -12 5 -11 12 6 45 24 48 39 42 39 -14z
m-34 -76 c-3 -4 7 -6 22 -4 21 4 24 2 12 -6 -8 -6 -25 -11 -37 -11 -13 0 -28
-9 -35 -20 -9 -13 -24 -20 -45 -20 -18 0 -33 2 -33 4 0 2 -3 11 -6 19 -4 12 0
14 15 10 12 -3 21 -9 21 -12 0 -4 6 -8 14 -8 8 0 12 6 9 13 -2 6 8 17 24 23
20 8 21 10 5 7 -12 -2 -20 0 -16 5 3 5 16 9 30 9 14 0 23 -4 20 -9z"/>
<path d="M777 515 c-4 -8 -3 -16 1 -19 4 -3 9 4 9 15 2 23 -3 25 -10 4z"/>
<path d="M1695 626 c-17 -7 -36 -20 -44 -30 -9 -11 1 -8 30 9 44 25 102 32
128 16 8 -5 -3 -7 -31 -4 -34 4 -55 0 -89 -18 -58 -30 -67 -31 -98 -8 -23 17
-40 19 -106 17 -69 -3 -80 -6 -83 -22 -2 -10 0 -16 5 -13 6 4 5 -17 -1 -50 -5
-31 -12 -49 -15 -41 -5 12 -12 13 -30 7 -20 -8 -21 -12 -11 -25 7 -8 19 -13
27 -10 15 6 16 -21 2 -69 -7 -25 -8 -22 -4 15 4 45 4 45 -10 15 -17 -39 -4
-65 33 -65 25 0 29 5 38 42 7 35 13 42 34 43 14 1 38 5 54 9 18 4 25 3 21 -3
-4 -7 1 -8 11 -4 11 4 13 8 6 11 -8 2 -6 12 8 29 25 31 26 79 3 107 -17 20
-16 20 6 0 25 -23 35 -89 18 -111 -12 -16 8 -72 35 -96 25 -21 83 -22 122 -2
16 9 31 13 34 10 3 -2 -15 -14 -39 -25 -24 -11 -38 -20 -31 -20 22 0 66 27 92
56 14 16 17 22 8 15 -11 -8 -18 -9 -18 -3 0 6 5 14 11 17 14 9 30 51 39 101 5
34 3 43 -12 53 -10 6 -18 16 -18 23 0 7 6 6 18 -3 10 -8 5 -2 -10 14 -32 30
-82 36 -133 13z m76 -56 c10 -6 19 -16 19 -23 0 -9 -2 -9 -8 0 -5 8 -15 8 -38
-2 -31 -13 -59 -58 -66 -105 -3 -22 1 -25 27 -27 22 -1 24 0 6 4 -21 4 -23 9
-17 41 7 44 47 88 71 78 17 -6 17 -17 -1 -73 -3 -10 1 -7 10 7 17 28 22 19 5
-11 -5 -11 -14 -17 -18 -14 -10 5 -32 -21 -28 -32 4 -13 -44 -16 -56 -4 -18
18 -17 102 1 129 24 36 60 49 93 32z m-241 -25 c17 -11 11 -43 -12 -59 -20
-14 -24 -14 -40 1 -23 21 -23 43 0 44 16 1 16 2 -1 6 -26 7 -10 24 18 19 14
-3 29 -7 35 -11z m91 -22 c-9 -16 -10 -15 -9 9 2 16 6 24 11 19 5 -5 5 -17 -2
-28z m-151 -43 c0 -5 -4 -10 -10 -10 -5 0 -10 5 -10 10 0 6 5 10 10 10 6 0 10
-4 10 -10z m-90 -10 c0 -5 -4 -10 -10 -10 -5 0 -10 5 -10 10 0 6 5 10 10 10 6
0 10 -4 10 -10z"/>
<path d="M1698 543 c-18 -21 -31 -43 -25 -43 2 0 13 14 25 30 25 33 24 41 0
13z"/>
<path d="M1492 520 c-10 -17 -10 -21 2 -26 21 -8 36 3 36 27 0 25 -22 24 -38
-1z m28 -5 c0 -8 -7 -15 -16 -15 -14 0 -14 3 -4 15 7 8 14 15 16 15 2 0 4 -7
4 -15z"/>
<path d="M915 608 c-2 -7 -8 -35 -14 -63 -6 -27 -13 -60 -17 -72 -4 -14 -2
-23 4 -23 6 0 13 10 15 23 2 12 3 6 2 -13 -2 -19 -7 -50 -10 -67 -7 -31 -6
-33 18 -33 24 0 26 4 38 75 7 41 16 72 20 68 4 -5 21 -39 38 -78 27 -65 32
-70 65 -76 36 -6 36 -6 36 30 1 30 2 33 11 18 18 -31 2 -65 -34 -76 l-32 -9
33 -1 c26 -1 35 4 39 19 7 25 9 25 45 -5 35 -30 102 -34 150 -9 25 13 36 14
50 5 23 -14 75 -14 84 0 12 19 22 79 13 73 -5 -3 -9 -14 -9 -24 0 -37 -12 -50
-45 -50 -18 0 -35 6 -38 13 -3 9 -11 9 -38 -2 -19 -8 -59 -15 -89 -17 -51 -2
-52 -1 -15 6 l40 8 -47 -3 c-26 -1 -45 2 -42 7 3 4 27 8 53 8 33 0 57 7 77 21
l29 21 -28 -26 c-15 -14 -24 -26 -19 -26 5 0 17 9 27 20 25 28 30 93 10 124
-11 16 -12 26 -5 29 6 3 5 4 -2 3 -7 -2 -18 4 -24 12 -6 9 -18 13 -28 9 -24
-10 -19 -27 8 -27 14 0 28 -5 32 -12 5 -8 2 -9 -10 -5 -10 4 -23 7 -30 7 -20
0 -59 38 -52 49 9 15 74 10 87 -6 6 -7 23 -13 38 -13 20 0 23 -2 11 -10 -8 -5
-10 -10 -4 -10 21 0 23 13 7 44 -21 41 -17 39 -66 47 -39 6 -39 7 -9 8 43 1
71 -14 82 -45 5 -13 15 -24 22 -24 9 0 8 3 -2 10 -10 6 -11 10 -2 10 6 0 12 5
12 12 0 6 -3 9 -6 6 -3 -3 -16 5 -29 18 -20 20 -34 24 -82 24 -38 0 -67 -6
-81 -16 -21 -15 -25 -15 -41 0 -21 19 -72 21 -89 4 -7 -7 -12 -27 -12 -45 0
-38 -15 -44 -24 -10 -11 46 -45 77 -82 77 -19 0 -36 -6 -39 -12z m84 -25 c12
-14 24 -37 27 -50 4 -12 10 -23 16 -23 5 0 7 -4 4 -8 -2 -4 -1 -14 4 -22 7
-12 9 -11 9 5 0 11 5 38 10 60 10 39 10 39 5 -13 -9 -101 -16 -103 -57 -13
-31 69 -40 81 -61 81 -20 0 -25 -7 -35 -47 l-10 -48 5 44 c2 24 7 48 10 53 11
18 53 7 73 -19z m175 -20 c3 -7 2 -13 -3 -13 -5 0 -11 -13 -13 -29 -2 -17 -2
-29 1 -27 8 3 50 -42 44 -47 -2 -3 12 -5 31 -4 43 1 77 -26 58 -45 -7 -7 -12
-8 -12 -2 0 6 -13 9 -30 6 -23 -3 -30 0 -30 12 0 9 -4 16 -10 16 -5 0 -10 -3
-10 -7 1 -18 17 -32 45 -36 l30 -4 -32 -2 c-23 -1 -37 5 -45 19 -16 25 -58 27
-59 3 0 -15 -2 -14 -9 3 -8 21 -8 83 2 100 2 5 4 28 4 50 -1 37 0 40 16 30 10
-6 20 -16 22 -23z m123 -49 c-3 -3 -12 -4 -19 -1 -8 3 -5 6 6 6 11 1 17 -2 13
-5z m-117 -177 c0 -6 -9 -2 -20 8 -11 10 -20 23 -20 28 0 6 9 2 20 -8 11 -10
20 -23 20 -28z"/>
<path d="M1150 465 c-7 -8 -9 -15 -5 -15 4 0 3 -6 -4 -13 -8 -11 -5 -13 19 -9
32 5 39 22 16 41 -10 9 -16 8 -26 -4z m20 -15 c0 -5 -2 -10 -4 -10 -3 0 -8 5
-11 10 -3 6 -1 10 4 10 6 0 11 -4 11 -10z"/>
<path d="M1250 420 c-12 -8 -9 -9 12 -8 15 1 24 6 22 10 -7 10 -16 10 -34 -2z"/>
<path d="M2138 613 c6 -2 18 -2 25 0 6 3 1 5 -13 5 -14 0 -19 -2 -12 -5z"/>
<path d="M638 525 c-25 -34 -22 -43 3 -11 12 15 20 29 18 31 -2 1 -12 -7 -21
-20z"/>
<path d="M2221 534 c0 -11 3 -14 6 -6 3 7 2 16 -1 19 -3 4 -6 -2 -5 -13z"/>
<path d="M1860 521 c0 -12 -7 -38 -15 -58 -13 -30 -13 -34 -1 -24 15 13 32 88
22 98 -3 4 -6 -4 -6 -16z"/>
<path d="M868 507 c-3 -19 -2 -25 4 -19 6 6 8 18 6 28 -3 14 -5 12 -10 -9z"/>
<path d="M1586 483 c-6 -14 -5 -15 5 -6 7 7 10 15 7 18 -3 3 -9 -2 -12 -12z"/>
<path d="M2212 470 c0 -14 2 -19 5 -12 2 6 2 18 0 25 -3 6 -5 1 -5 -13z"/>
<path d="M491 454 c0 -11 3 -14 6 -6 3 7 2 16 -1 19 -3 4 -6 -2 -5 -13z"/>
<path d="M962 430 c0 -14 2 -19 5 -12 2 6 2 18 0 25 -3 6 -5 1 -5 -13z"/>
<path d="M877 425 c-4 -8 -2 -17 3 -20 6 -4 10 3 10 14 0 25 -6 27 -13 6z"/>
<path d="M1508 423 c7 -3 16 -2 19 1 4 3 -2 6 -13 5 -11 0 -14 -3 -6 -6z"/>
<path d="M1001 400 c-1 -8 8 -29 18 -46 16 -26 24 -31 45 -27 14 3 26 8 26 10
0 3 -11 3 -25 1 -20 -4 -27 1 -44 36 -11 23 -20 34 -20 26z"/>
<path d="M2050 400 c-9 -6 -10 -10 -3 -10 6 0 15 5 18 10 8 12 4 12 -15 0z"/>
<path d="M1433 354 c-6 -13 -7 -24 -3 -24 9 0 25 39 18 45 -2 2 -8 -7 -15 -21z"/>
</g>
</svg>
